SplineFontDB: 3.0
FontName: La_roquette
FullName: TurtleBase La Roquette
FamilyName: TurtleBase
Weight: Medium
Copyright: Created by Alice/Vincent/Margot/Lorene, with FontForge 2.0 (http://fontforge.sf.net)
UComments: "2012-11-21: Created." 
Version: 001.000
ItalicAngle: 0
UnderlinePosition: -100
UnderlineWidth: 50
Ascent: 800
Descent: 200
UFOAscent: 800
UFODescent: -200
LayerCount: 2
Layer: 0 0 "Back"  1
Layer: 1 0 "Fore"  0
NeedsXUIDChange: 1
FSType: 1
OS2Version: 0
OS2_WeightWidthSlopeOnly: 0
OS2_UseTypoMetrics: 0
CreationTime: 1353679259
ModificationTime: 1353680225
PfmFamily: 0
TTFWeight: 500
TTFWidth: 5
LineGap: 0
VLineGap: 0
OS2TypoAscent: 800
OS2TypoAOffset: 0
OS2TypoDescent: 200
OS2TypoDOffset: 0
OS2TypoLinegap: 90
OS2WinAscent: 800
OS2WinAOffset: 0
OS2WinDescent: -72
OS2WinDOffset: 0
HheadAscent: 0
HheadAOffset: 1
HheadDescent: 0
HheadDOffset: 1
OS2Vendor: 'PfEd'
DEI: 91125
LangName: 1033 "" "" "" "" "" "Version 001.000" 
Encoding: UnicodeBmp
Compacted: 1
UnicodeInterp: none
NameList: Adobe Glyph List
DisplaySize: -96
AntiAlias: 1
FitToEm: 1
WinInfo: 16 8 2
BeginChars: 65537 77

StartChar: zero
Encoding: 48 48 0
Width: 1000
VWidth: 0
GlyphClass: 2
Flags: W
LayerCount: 2
Fore
SplineSet
1.72949 160 m 0
 3.45898 157 467.312 643 462.917 634.675 c 1
 464 634 462.521 160 462.521 160 c 1
 412.521 73.3975 l 1
 330.605 16.0391 l 1
 232.125 -1.3252 l 1
 133.645 16.0391 l 1
 51.7295 73.3975 l 1
 1.72949 160 l 1
 1.72949 160 0 184 2.125 634.675 c 1
 52.125 721.277 l 1
 134.041 778.636 l 1
 232.521 796 l 1
 331.002 778.636 l 1
 412.917 721.277 l 1
 462.917 634.675 l 1
EndSplineSet
EndChar

StartChar: one
Encoding: 49 49 1
Width: 1000
VWidth: 0
GlyphClass: 2
Flags: W
LayerCount: 2
Fore
SplineSet
204.184 0.37207 m 1
 204.184 800 l 1
 0 628.67 l 1
EndSplineSet
EndChar

StartChar: three
Encoding: 51 51 2
Width: 1000
VWidth: 0
GlyphClass: 2
Flags: HW
LayerCount: 2
Fore
SplineSet
4.236328125 792.923828125 m 1
 52.236328125 801.923828125 l 1
 71.7060546875 795.796875 119.42578125 788.665039062 122.158203125 787.212890625 c 2
 185.779296875 751.212890625 l 1
 226.9296875 689.874023438 l 1
 246.0859375 621.935546875 l 1
 226.9296875 552 l 1
 180.779296875 483.659179688 l 1
 110.9296875 438 l 1
 232.907226562 374.403320312 l 1
 292.078125 296.232421875 l 1
 318.860351562 186.279296875 l 1
 288.078125 84.326171875 l 1
 212.907226562 13.1552734375 l 1
 99.953125 -27.6279296875 l 1
 0 -0.8447265625 l 1
EndSplineSet
EndChar

StartChar: two
Encoding: 50 50 3
Width: 1000
VWidth: 0
GlyphClass: 2
Flags: HWO
LayerCount: 2
Fore
SplineSet
36.1259765625 661.68359375 m 1
 52.33203125 707.75390625 l 1
 67.373046875 721.551757812 97.408203125 759.3125 100.033203125 760.94921875 c 2
 163.021484375 798.048828125 l 1
 236.715820312 803.018554688 l 1
 305.130859375 785.637695312 l 1
 356.120117188 734.079101562 l 1
 392.228515625 659.94140625 l 1
242.647460938 836.6015625 m 1
391.439453125 658 m 1
 0 1.94824 l 1
 394.294921875 1.9482421875 l 1
EndSplineSet
EndChar

StartChar: four
Encoding: 52 52 4
Width: 1000
VWidth: 0
GlyphClass: 2
Flags: W
LayerCount: 2
Fore
SplineSet
500.6 151 m 1
 0 149.85 l 1
 200.6 805 l 1
344.6 451 m 1
 343.734 0.37207 l 1
EndSplineSet
EndChar

StartChar: five
Encoding: 53 53 5
Width: 1000
VWidth: 0
GlyphClass: 2
Flags: W
LayerCount: 2
Fore
SplineSet
462.917 420.675 m 0
 464 420 462.521 160 462.521 160 c 1
 412.521 73.3975 l 1
 330.605 16.0391 l 1
 232.125 -1.3252 l 1
 133.645 16.0391 l 1
 51.7295 73.3975 l 2
 50 75 0 162 0 162 c 1
462.917 420.675 m 1
 412.917 507.277 l 1
 331.002 564.636 l 1
 232.521 582 l 1
 134.041 564.636 l 1
 52.125 507.277 l 1
 2.125 420.675 l 1
 0 423 0.829102 652.673 0 801 c 1
 462 799 l 1
EndSplineSet
EndChar

StartChar: six
Encoding: 54 54 6
Width: 1000
VWidth: 0
GlyphClass: 2
Flags: W
LayerCount: 2
Fore
SplineSet
-3.13867 113.838 m 0
0.722656 112.928 m 0
 0 112.2 1.72266 383.072 1.72266 383.072 c 1
 44.7227 443.693 l 1
 102.062 483.844 l 1
 171 496 l 1
 239.936 483.844 l 1
 297.277 443.693 l 1
 332.277 383.072 l 1
 334 384 331.277 112.928 331.277 112.928 c 1
 288.277 52.3066 l 1
 230.938 12.1562 l 1
 166 0 l 1
 93.0645 12.1562 l 1
 35.7227 52.3066 l 1
 0.722656 112.928 l 1
 -0.78576 112.928 -0.25699 688 4.72266 685.072 c 1
 47.7227 745.693 l 1
 105.062 785.844 l 1
 174 798 l 1
 242.936 785.844 l 1
 300.277 745.693 l 1
 335.277 685.072 l 1
339.139 684.162 m 0
336.139 382.162 m 0
EndSplineSet
EndChar

StartChar: nine
Encoding: 57 57 7
Width: 1000
VWidth: 0
GlyphClass: 2
Flags: W
LayerCount: 2
Fore
SplineSet
35.7227 52.3066 m 1
 93.0645 12.1562 l 1
 166 0 l 1
 230.938 12.1562 l 1
 288.277 52.3066 l 1
 331.277 112.928 l 1
 335.277 685.072 l 1
 300.277 745.693 l 1
 242.936 785.844 l 1
 174 798 l 1
 105.062 785.844 l 1
 47.7227 745.693 l 1
 -0.277344 685.072 l 1
 0 570 l 1
 39.7227 520.307 l 1
 97.0645 480.156 l 1
 164 458 l 1
 234.938 480.156 l 1
 292.277 520.307 l 1
 334 567 l 1
EndSplineSet
EndChar

StartChar: eight
Encoding: 56 56 8
Width: 1000
VWidth: 0
GlyphClass: 2
Flags: W
LayerCount: 2
Fore
SplineSet
4.72266 680.072 m 1
 47.7227 740.693 l 1
 105.062 780.844 l 1
 174 793 l 1
 242.936 780.844 l 1
 300.277 740.693 l 1
 335.277 680.072 l 1
 332 679 335.277 575.928 335.277 575.928 c 1
 292.277 515.307 l 1
 234.938 475.156 l 1
 170 463 l 1
 97.0645 475.156 l 1
 39.7227 515.307 l 1
 1.72266 575.928 l 1
 1.72266 575.928 0 676 4.72266 680.072 c 1
1.72266 356.072 m 1
 44.7227 416.693 l 1
 102.062 456.844 l 1
 171 464 l 1
 239.936 456.844 l 1
 297.277 416.693 l 1
 332.277 356.072 l 1
 334 357 331.277 112.928 331.277 112.928 c 1
 288.277 52.3066 l 1
 230.938 12.1562 l 1
 166 0 l 1
 93.0645 12.1562 l 1
 35.7227 52.3066 l 1
 0.722656 112.928 l 2
 -0.0645407 112.928 0 360 1.72266 356.072 c 1
0.861328 576.838 m 0
-3.13867 113.838 m 0
339.139 679.162 m 0
336.139 355.162 m 0
EndSplineSet
EndChar

StartChar: question
Encoding: 63 63 9
Width: 1000
VWidth: 0
GlyphClass: 2
Flags: W
LayerCount: 2
Fore
SplineSet
240 44 m 1
 240 5 l 1
2.125 634.675 m 1
 52.125 721.277 l 1
 134.041 778.636 l 1
 232.521 796 l 1
 331.002 778.636 l 1
 412.917 721.277 l 1
 452.803 630.3 l 1
 449.906 540 l 1
 363 441 l 1
 244 405 l 1
 241 210 l 1
2.125 634.675 m 0
EndSplineSet
EndChar

StartChar: hyphen
Encoding: 45 45 10
Width: 1000
VWidth: 0
GlyphClass: 2
Flags: W
PickledData: "(dp1
S'com.fontlab.hintData'
p2
(dp3
S'hhints'
p4
((dp5
S'position'
p6
I176
sS'width'
p7
I50
stp8
ss."
HStem: 176 50
LayerCount: 2
Fore
SplineSet
343.5 201 m 1
 0 201 l 1
 343.5 201 l 1
EndSplineSet
EndChar

StartChar: seven
Encoding: 55 55 11
Width: 1000
VWidth: 0
GlyphClass: 2
Flags: W
LayerCount: 2
Fore
SplineSet
215.236 501.388 m 1
 451.778 501.388 l 1
45.7842 800 m 1
 489.778 798.388 l 1
 85.2363 0 l 1
EndSplineSet
EndChar

StartChar: C
Encoding: 67 67 12
Width: 1000
VWidth: 0
GlyphClass: 2
Flags: W
LayerCount: 2
Fore
SplineSet
412.521 73.3975 m 1
 330.605 16.0391 l 1
 232.125 -1.3252 l 1
 133.645 16.0391 l 1
 51.7295 73.3975 l 1
 1.72949 160 l 1
 1.72949 160 0 184 2.125 634.675 c 0
462.917 634.675 m 1
 412.917 721.277 l 1
 331.002 778.636 l 1
 232.521 796 l 1
 134.041 778.636 l 1
 52.125 721.277 l 1
 2.125 634.675 l 1
EndSplineSet
EndChar

StartChar: parenright
Encoding: 41 41 13
Width: 1000
VWidth: 0
GlyphClass: 2
Flags: W
PickledData: "(dp1
S'com.fontlab.hintData'
p2
(dp3
S'vhints'
p4
((dp5
S'position'
p6
I110
sS'width'
p7
I50
stp8
sS'hhints'
p9
((dp10
g6
I798
sg7
I20
stp11
ss."
HStem: 798 20
VStem: 110 50
LayerCount: 2
Fore
SplineSet
-3.62207 801 m 0
-3.53125 -1.79199 m 0
-3.53125 -1.79199 m 0
-3.53125 -1.79199 m 0
-4.53125 797.139 m 1
 77.3154 742 l 1
 134.674 660.084 l 1
 132.5 354 l 1
 134.674 130.123 l 1
 77.3154 48.208 l 1
 -3.53125 -1.79199 l 1
EndSplineSet
EndChar

StartChar: ampersand
Encoding: 38 38 14
Width: 1000
VWidth: 0
GlyphClass: 2
Flags: W
PickledData: "(dp1
S'com.fontlab.hintData'
p2
(dp3
S'vhints'
p4
((dp5
S'position'
p6
I306
sS'width'
p7
I50
stp8
sS'hhints'
p9
((dp10
g6
I335
sg7
I50
stp11
ss."
HStem: 335 50
VStem: 306 50
LayerCount: 2
Fore
SplineSet
266 360 m 1
 407 359 l 1
335.277 685.072 m 1
 300.277 745.693 l 1
 242.936 785.844 l 1
 174 798 l 1
 105.062 785.844 l 1
 47.7227 745.693 l 1
 4.72266 685.072 l 1
 0 681 1.72266 580.928 1.72266 580.928 c 1
 39.7227 520.307 l 1
 97.0645 480.156 l 1
 170 468 l 1
0.861328 581.838 m 0
-3.13867 113.838 m 0
339.139 684.162 m 0
171 469 m 1
 102.062 456.844 l 1
 44.7227 416.693 l 1
 1.72266 356.072 l 1
 0 360 -0.0645407 112.928 0.722656 112.928 c 2
 35.7227 52.3066 l 1
 93.0645 12.1562 l 1
 166 0 l 1
 230.938 12.1562 l 1
 288.277 52.3066 l 1
 331.277 112.928 l 1
 331.277 112.928 334 357 332.277 356.072 c 0
336.139 355.162 m 0
EndSplineSet
EndChar

StartChar: A
Encoding: 65 65 15
Width: 1000
VWidth: 0
GlyphClass: 2
Flags: W
LayerCount: 2
Fore
SplineSet
-0.00292969 0 m 1
 257.997 800 l 1
 493.997 0 l 1
 410.997 280 l 1
 90.3369 280.242 l 1
EndSplineSet
EndChar

StartChar: B
Encoding: 66 66 16
Width: 1000
VWidth: 0
GlyphClass: 2
Flags: W
LayerCount: 2
Fore
SplineSet
-0.00292969 465.002 m 0
 -0.00292969 462.002 -0.000976562 800 -0.000976562 800 c 1
 325.378 799.558 l 1
 386 756.555 l 1
 426.15 699.214 l 1
 438.306 630.277 l 1
 426.15 561.341 l 1
 386 504 l 1
 324.469 465.146 l 1
325.469 0.208008 m 0
325.469 0.208008 m 2
 325.315 0 1.3125 0.00195312 -0.00195312 0.00195312 c 1
 0 465 l 1
 324.469 465.139 l 1
 406.315 410 l 1
 463.674 328.084 l 1
 479 231 l 1
 463.674 131.123 l 1
 406.315 49.208 l 1
 325.469 0.208008 l 2
EndSplineSet
EndChar

StartChar: D
Encoding: 68 68 17
Width: 1000
VWidth: 0
GlyphClass: 2
Flags: W
PickledData: "(dp1
S'com.fontlab.hintData'
p2
(dp3
S'vhints'
p4
((dp5
S'position'
p6
I-25
sS'width'
p7
I50
stp8
sS'hhints'
p9
((dp10
g6
I-26
sg7
I50
s(dp11
g6
I-1
sg7
I21
s(dp12
g6
I781
sg7
I20
stp13
ss."
HStem: -26 50 -1 21 781 20
VStem: -25 50
LayerCount: 2
Fore
SplineSet
0.000976562 0.444336 m 1
 0 801.388 l 2
 0 801.249 257.521 797.613 257.521 797.613 c 1
 356 780.249 l 1
 437.916 722.891 l 1
 493.055 641.044 l 1
 493 157.5 l 1
 444.861 76.4023 l 1
 362.945 19.0439 l 1
 264.167 -0.00195312 l 1
 0.000976562 0.444336 l 1
EndSplineSet
EndChar

StartChar: G
Encoding: 71 71 18
Width: 1000
VWidth: 0
GlyphClass: 2
Flags: W
LayerCount: 2
Fore
SplineSet
412.917 721.277 m 1
 331.002 778.636 l 1
 232.521 796 l 1
 134.041 778.636 l 1
 52.125 721.277 l 1
 0.125 634.675 l 2
 0.235352 634.675 -0.00390625 160 0 160 c 2
 51.7295 73.3975 l 1
 133.645 16.0391 l 1
 232.125 -1.3252 l 1
 330.605 16.0391 l 1
 412.521 73.3975 l 1
 460 160.25 l 1
 460 400 l 1
 336.918 400 l 1
EndSplineSet
EndChar

StartChar: F
Encoding: 70 70 19
Width: 1000
VWidth: 0
GlyphClass: 2
Flags: W
LayerCount: 2
Fore
SplineSet
226.453 502 m 1
 0 502 l 1
0 502 m 0
0 0.37207 m 0
0 0.37207 m 1
 0.00390625 799.996 l 1
 449.906 800 l 1
EndSplineSet
EndChar

StartChar: H
Encoding: 72 72 20
Width: 1000
VWidth: 0
GlyphClass: 2
Flags: W
PickledData: "(dp1
S'com.fontlab.hintData'
p2
(dp3
S'vhints'
p4
((dp5
S'position'
p6
I-25
sS'width'
p7
I50
s(dp8
g6
I473
sg7
I50
stp9
sS'hhints'
p10
((dp11
g6
I0
sg7
I21
s(dp12
g6
I375
sg7
I50
s(dp13
g6
I780
sg7
I20
stp14
ss."
HStem: 0 21 375 50 780 20<0 0>
VStem: -25 50 473 50
LayerCount: 2
Fore
SplineSet
0 0.37207 m 1
 0 800 l 1
 0 400.187 l 1
 405.889 399.419 l 1
 405.667 799.997 l 1
 405.75 0 l 1
EndSplineSet
EndChar

StartChar: I
Encoding: 73 73 21
Width: 1000
VWidth: 0
GlyphClass: 2
Flags: W
PickledData: "(dp1
S'com.fontlab.hintData'
p2
(dp3
S'vhints'
p4
((dp5
S'position'
p6
I-24
sS'width'
p7
I50
stp8
sS'hhints'
p9
((dp10
g6
I0
sg7
I21
s(dp11
g6
I780
sg7
I20
stp12
ss."
HStem: 0 21 780 20
VStem: -24 50
LayerCount: 2
Fore
SplineSet
1 0.37207 m 1
 1 800 l 1
EndSplineSet
EndChar

StartChar: E
Encoding: 69 69 22
Width: 1000
VWidth: 0
GlyphClass: 2
Flags: W
PickledData: "(dp1
S'com.fontlab.hintData'
p2
(dp3
S'hhints'
p4
((dp5
S'position'
p6
I477
sS'width'
p7
I50
s(dp8
g6
I775
sg7
I50
stp9
ss."
HStem: 477 50 775 50
LayerCount: 2
Fore
SplineSet
226.453 502 m 1
 0 502 l 1
0 502 m 0
0 0.37207 m 1
 449.906 0 l 1
 0 0.37207 l 1
 0 800 l 1
 449.906 800 l 1
EndSplineSet
EndChar

StartChar: O
Encoding: 79 79 23
Width: 1000
VWidth: 0
GlyphClass: 2
Flags: W
PickledData: "(dp1
S'com.fontlab.hintData'
p2
(dp3
S'vhints'
p4
((dp5
S'position'
p6
I-23
sS'width'
p7
I50
s(dp8
g6
I438
sg7
I50
stp9
ss."
VStem: -23 50 438 50
LayerCount: 2
Fore
SplineSet
462.917 634.675 m 2
 412.917 721.277 l 1
 331.002 778.636 l 1
 232.521 796 l 1
 134.041 778.636 l 1
 52.125 721.277 l 1
 2.125 634.675 l 1
 0 184 1.72949 160 1.72949 160 c 1
 51.7295 73.3975 l 1
 133.645 16.0391 l 1
 232.125 -1.3252 l 1
 330.605 16.0391 l 1
 412.521 73.3975 l 1
 462.521 160 l 1
 462.521 160 464 634 462.917 634.675 c 2
EndSplineSet
EndChar

StartChar: J
Encoding: 74 74 24
Width: 1000
VWidth: 0
GlyphClass: 2
Flags: W
LayerCount: 2
Fore
SplineSet
298 800 m 1
 461.813 799 l 1
 461.813 157.372 l 1
 410.792 75.7852 l 1
 328.876 18.4268 l 1
 230.396 1.0625 l 1
 131.915 18.4268 l 1
 50 75.7852 l 1
 0 156.632 l 1
EndSplineSet
EndChar

StartChar: K
Encoding: 75 75 25
Width: 1000
VWidth: 0
GlyphClass: 2
Flags: W
LayerCount: 2
Fore
SplineSet
0 799.058 m 1
 0 0.37207 l 1
0 468.783 m 1
 370.217 800 l 1
87.2109 544 m 1
 492.421 8.8877 l 1
EndSplineSet
EndChar

StartChar: L
Encoding: 76 76 26
Width: 1000
VWidth: 0
GlyphClass: 2
Flags: W
PickledData: "(dp1
S'com.fontlab.hintData'
p2
(dp3
S'vhints'
p4
((dp5
S'position'
p6
I-25
sS'width'
p7
I50
stp8
sS'hhints'
p9
((dp10
g6
I-25
sg7
I50
s(dp11
g6
I780
sg7
I20
stp12
ss."
HStem: -25 50 780 20<0 0>
VStem: -25 50
LayerCount: 2
Fore
SplineSet
0 800 m 1
 0 0.37207 l 1
 482.813 0.37207 l 1
EndSplineSet
EndChar

StartChar: M
Encoding: 77 77 27
Width: 1000
VWidth: 0
GlyphClass: 2
Flags: W
LayerCount: 2
Fore
SplineSet
664.055 0 m 1
 540.297 794.252 l 1
 338.055 88.002 l 1
 140.242 800 l 1
 0.0546875 0 l 1
EndSplineSet
EndChar

StartChar: N
Encoding: 78 78 28
Width: 1000
VWidth: 0
GlyphClass: 2
Flags: W
LayerCount: 2
Fore
SplineSet
0 8.40918 m 1
 0 800 l 1
 497.779 0 l 1
 497.779 791.591 l 1
EndSplineSet
EndChar

StartChar: T
Encoding: 84 84 29
Width: 1000
VWidth: 0
GlyphClass: 2
Flags: W
LayerCount: 2
Fore
SplineSet
247.464 -0.62793 m 1
 247.464 799 l 1
 0 800 l 1
 497.778 799 l 1
EndSplineSet
EndChar

StartChar: P
Encoding: 80 80 30
Width: 1000
VWidth: 0
GlyphClass: 2
Flags: W
LayerCount: 2
Fore
SplineSet
325.469 334.208 m 0
325.469 334.208 m 0
 325.315 334 2.62988 331 1.31543 331 c 0
325.469 334.208 m 1
 406.315 384.208 l 1
 463.674 466.123 l 1
 481.038 564.604 l 1
 463.674 663.084 l 1
 406.315 745 l 1
 324.469 800.139 l 1
 0 800 l 1
 0 0.37207 l 1
EndSplineSet
EndChar

StartChar: Q
Encoding: 81 81 31
Width: 1000
VWidth: 0
GlyphClass: 2
Flags: W
LayerCount: 2
Fore
SplineSet
462.917 634.675 m 2
 412.917 721.277 l 1
 331.002 778.636 l 1
 232.521 796 l 1
 134.041 778.636 l 1
 52.125 721.277 l 1
 2.125 634.675 l 1
 0 184 1.72949 160 1.72949 160 c 1
 51.7295 73.3975 l 1
 133.645 16.0391 l 1
 232.125 -1.3252 l 1
 330.605 16.0391 l 1
 412.521 73.3975 l 1
 462.521 160 l 1
 462.521 160 464 634 462.917 634.675 c 2
273.475 73.2812 m 0
273.475 73.2812 m 1
 474.814 0 l 1
EndSplineSet
EndChar

StartChar: R
Encoding: 82 82 32
Width: 1000
VWidth: 0
GlyphClass: 2
Flags: W
PickledData: "(dp1
S'com.fontlab.hintData'
p2
(dp3
S'vhints'
p4
((dp5
S'position'
p6
I1
sS'width'
p7
I24
stp8
sS'hhints'
p9
((dp10
g6
I0
sg7
I21
s(dp11
g6
I306
sg7
I50
s(dp12
g6
I775
sg7
I50
stp13
ss."
HStem: 0 21 306 50 775 50
VStem: 1 24
LayerCount: 2
Fore
SplineSet
325.469 334.208 m 0
 319.986 331 431.924 130.341 499.985 -0 c 0
325.469 334.208 m 0
325.469 334.208 m 0
 325.315 334 2.62988 331 1.31543 331 c 0
325.469 334.208 m 1
 406.315 384.208 l 1
 463.674 466.123 l 1
 481.038 564.604 l 1
 463.674 663.084 l 1
 406.315 745 l 1
 324.469 800.139 l 1
 0 800 l 1
 0 0.37207 l 1
EndSplineSet
EndChar

StartChar: S
Encoding: 83 83 33
Width: 1000
VWidth: 0
GlyphClass: 2
Flags: W
LayerCount: 2
Fore
SplineSet
420.378 726.918 m 1
 338.463 784.276 l 1
 239.981 801.641 l 1
 141.502 784.276 l 1
 59.5859 726.918 l 1
 2.44727 645.071 l 1
 -2 650 -0.0185547 586.487 -0.0185547 586.487 c 1
 47.9814 505.641 l 1
 129.896 448.282 l 1
 228.378 430.918 l 1
 332.065 412.999 l 1
 413.981 355.641 l 1
 469.12 273.794 l 1
 472 278 465.931 157.632 465.931 157.632 c 1
 410.792 75.7852 l 1
 328.876 18.4268 l 1
 230.396 1.0625 l 1
 131.915 18.4268 l 1
 50 75.7852 l 1
 0 156.632 l 1
EndSplineSet
EndChar

StartChar: V
Encoding: 86 86 34
Width: 1000
VWidth: 0
GlyphClass: 2
Flags: W
LayerCount: 2
Fore
SplineSet
0 800 m 1
 247.464 0 l 1
 497.778 799 l 1
EndSplineSet
EndChar

StartChar: W
Encoding: 87 87 35
Width: 1000
VWidth: 0
GlyphClass: 2
Flags: W
PickledData: "(dp1
S'com.fontlab.hintData'
p2
(dp3
S'hhints'
p4
((dp5
S'position'
p6
I786
sS'width'
p7
I20
stp8
ss."
HStem: 786 20
LayerCount: 2
Fore
SplineSet
0 800 m 1
 193.753 2.11035 l 1
 395.847 794.296 l 1
 589.6 2.40527 l 1
 790.693 797.591 l 1
EndSplineSet
EndChar

StartChar: X
Encoding: 88 88 36
Width: 1000
VWidth: 0
GlyphClass: 2
Flags: W
LayerCount: 2
Fore
SplineSet
0 800 m 1
 497.778 0 l 1
497.778 800.557 m 1
 0 -0.556641 l 1
EndSplineSet
EndChar

StartChar: U
Encoding: 85 85 37
Width: 1000
VWidth: 0
GlyphClass: 2
Flags: W
LayerCount: 2
Fore
SplineSet
465.931 804 m 1
 465.931 157.632 l 1
 410.792 75.7852 l 1
 328.876 18.4268 l 1
 230.396 1.0625 l 1
 131.915 18.4268 l 1
 50 75.7852 l 1
 0 156.632 l 1
 0 810 l 1
EndSplineSet
EndChar

StartChar: Y
Encoding: 89 89 38
Width: 1000
VWidth: 0
GlyphClass: 2
Flags: W
LayerCount: 2
Fore
SplineSet
0 800 m 1
 253 406 l 1
497.778 800.557 m 1
 0 -0.556641 l 1
EndSplineSet
EndChar

StartChar: Z
Encoding: 90 90 39
Width: 1000
VWidth: 0
GlyphClass: 2
Flags: W
LayerCount: 2
Fore
SplineSet
155.778 501.388 m 1
 419.778 501.388 l 1
45.7842 800 m 1
 497.778 798.388 l 1
 0 -0.556641 l 1
 497.778 0 l 1
EndSplineSet
EndChar

StartChar: u1F422
Encoding: 65536 128034 40
Width: 1120
VWidth: 0
GlyphClass: 2
Flags: W
LayerCount: 2
Fore
SplineSet
250.511 184.66 m 1
 112.094 249.052 l 1
 -8.68848 249.052 l 1
 -8.68848 128.27 l 1
 192.91 127.781 l 1
420.368 356.02 m 1
 192.91 127.781 l 1
 342.151 127.78 l 1
 221.191 8.98047 l 1
 309.032 8.98047 l 1
 430.271 128.5 l 1
 893.159 128.27 l 1
 1007.04 10.0723 l 1
 1087.56 10.0723 l 1
 973.684 128.27 l 1
 1134.73 128.27 l 1
 906.976 356.02 l 1
 420.368 356.02 l 1
EndSplineSet
EndChar

StartChar: parenleft
Encoding: 40 40 42
Width: 1000
VWidth: 0
Flags: W
PickledData: "(dp1
S'com.fontlab.hintData'
p2
(dp3
S'vhints'
p4
((dp5
S'position'
p6
I-30
sS'width'
p7
I50
stp8
ss."
VStem: -30 50
LayerCount: 2
Fore
SplineSet
133.765 -1.79199 m 0
133.674 801 m 0
133.674 801 m 0
133.674 801 m 0
134.674 2.06934 m 1
 52.8271 57.208 l 1
 -4.53125 139.124 l 1
 -2.35742 445.208 l 1
 -4.53125 669.085 l 1
 52.8271 751 l 1
 133.674 801 l 1
EndSplineSet
EndChar

StartChar: period
Encoding: 46 46 43
Width: 1000
VWidth: 0
Flags: W
PickledData: "(dp1
S'com.fontlab.hintData'
p2
(dp3
S'vhints'
p4
((dp5
S'position'
p6
I-25
sS'width'
p7
I50
stp8
sS'hhints'
p9
((dp10
g6
I5
sg7
I39
stp11
ss."
HStem: 5 39<0 0>
VStem: -25 50
LayerCount: 2
Fore
SplineSet
0 44 m 1
 0 5 l 1
EndSplineSet
EndChar

StartChar: equal
Encoding: 61 61 44
Width: 1000
VWidth: 0
Flags: W
LayerCount: 2
Fore
SplineSet
397.25 500 m 1
 0.780273 500 l 1
 397.25 500 l 1
396.5 241 m 1
 0 241 l 1
 396.5 241 l 1
EndSplineSet
EndChar

StartChar: less
Encoding: 60 60 45
Width: 1000
VWidth: 0
Flags: W
LayerCount: 2
Fore
SplineSet
396.5 0 m 1
 -8.75 252 l 1
 393.25 500 l 1
EndSplineSet
EndChar

StartChar: greater
Encoding: 62 62 46
Width: 1000
VWidth: 0
Flags: W
LayerCount: 2
Fore
SplineSet
-8.75 500 m 1
 396.5 248 l 1
 -5.5 0 l 1
EndSplineSet
EndChar

StartChar: colon
Encoding: 58 58 47
Width: 1000
VWidth: 0
Flags: W
LayerCount: 2
Fore
SplineSet
0 501.5 m 1
 0 462.5 l 1
0 39 m 1
 0 0 l 1
EndSplineSet
EndChar

StartChar: semicolon
Encoding: 59 59 48
Width: 1000
VWidth: 0
Flags: W
LayerCount: 2
Fore
SplineSet
0 39 m 1
 0.00292969 -0.000976562 l 1
 -34.667 -55.998 l 1
0 500.502 m 1
 0 461.502 l 1
EndSplineSet
EndChar

StartChar: comma
Encoding: 44 44 49
Width: 1000
VWidth: 0
Flags: W
PickledData: "(dp1
S'com.fontlab.hintData'
p2
(dp3
S'vhints'
p4
((dp5
S'position'
p6
I-25
sS'width'
p7
I50
stp8
sS'hhints'
p9
((dp10
g6
I-69
sg7
I108
stp11
ss."
HStem: -69 108
VStem: -25 50
LayerCount: 2
Fore
SplineSet
0 39 m 1
 0.00292969 -0.000976562 l 1
 -34.667 -55.998 l 1
EndSplineSet
EndChar

StartChar: quotesingle
Encoding: 39 39 50
Width: 1000
VWidth: 0
Flags: W
PickledData: "(dp1
S'com.fontlab.hintData'
p2
(dp3
S'vhints'
p4
((dp5
S'position'
p6
I-25
sS'width'
p7
I50
stp8
sS'hhints'
p9
((dp10
g6
I601
sg7
I199
stp11
ss."
HStem: 601 199<0 0>
VStem: -25 50
LayerCount: 2
Fore
SplineSet
0 800 m 1
 0 601 l 1
EndSplineSet
EndChar

StartChar: plus
Encoding: 43 43 51
Width: 1000
VWidth: 0
Flags: W
PickledData: "(dp1
S'com.fontlab.hintData'
p2
(dp3
S'hhints'
p4
((dp5
S'position'
p6
I227
sS'width'
p7
I50
stp8
ss."
HStem: 227 50
LayerCount: 2
Fore
SplineSet
199.25 501.8 m 1
 198.5 5.5 l 1
 199.25 501.8 l 1
403.25 251.8 m 1
 6.75 251.8 l 1
 403.25 251.8 l 1
EndSplineSet
EndChar

StartChar: exclam
Encoding: 33 33 52
Width: 1000
VWidth: 0
Flags: W
PickledData: "(dp1
S'com.fontlab.hintData'
p2
(dp3
S'vhints'
p4
((dp5
S'position'
p6
I-25
sS'width'
p7
I50
stp8
sS'hhints'
p9
((dp10
g6
I5
sg7
I39
stp11
ss."
HStem: 5 39<0 0>
VStem: -25 50
LayerCount: 2
Fore
SplineSet
0 200 m 1
 0 796 l 1
0 44 m 1
 0 5 l 1
EndSplineSet
EndChar

StartChar: quotedbl
Encoding: 34 34 53
Width: 1000
VWidth: 0
Flags: W
PickledData: "(dp1
S'com.fontlab.hintData'
p2
(dp3
S'vhints'
p4
((dp5
S'position'
p6
I-25
sS'width'
p7
I50
s(dp8
g6
I58
sg7
I50
stp9
sS'hhints'
p10
((dp11
g6
I601
sg7
I199
stp12
ss."
HStem: 601 199<0 0>
VStem: -25 50 58 50
LayerCount: 2
Fore
SplineSet
82 800 m 1
 82.9971 601.001 l 1
0 800 m 1
 0 601 l 1
EndSplineSet
EndChar

StartChar: numbersign
Encoding: 35 35 54
Width: 1000
VWidth: 0
Flags: W
PickledData: "(dp1
S'com.fontlab.hintData'
p2
(dp3
S'hhints'
p4
((dp5
S'position'
p6
I176
sS'width'
p7
I50
s(dp8
g6
I335
sg7
I50
stp9
ss."
HStem: 176 50 335 50
LayerCount: 2
Fore
SplineSet
185.5 561 m 1
 93 0 l 1
 185.5 561 l 1
312 561 m 1
 219.5 0 l 1
 312 561 l 1
396.47 360 m 1
 0 360 l 1
 396.47 360 l 1
396.5 201 m 1
 0 201 l 1
 396.5 201 l 1
EndSplineSet
EndChar

StartChar: slash
Encoding: 47 47 55
Width: 1000
VWidth: 0
Flags: W
PickledData: "(dp1
S'com.fontlab.hintData'
p2
(dp3
S'hhints'
p4
((dp5
S'position'
p6
I793
sS'width'
p7
I20
stp8
ss."
HStem: 793 20
LayerCount: 2
Fore
SplineSet
0 0 m 1
 294.5 804 l 1
EndSplineSet
EndChar

StartChar: backslash
Encoding: 92 92 56
Width: 1000
VWidth: 0
Flags: W
LayerCount: 2
Fore
SplineSet
294.5 804 m 1
 0 0 l 1
EndSplineSet
EndChar

StartChar: dollar
Encoding: 36 36 57
Width: 1000
VWidth: 0
Flags: W
PickledData: "(dp1
S'com.fontlab.hintData'
p2
(dp3
S'vhints'
p4
((dp5
S'position'
p6
I205
sS'width'
p7
I50
s(dp8
g6
I215
sg7
I50
s(dp9
g6
I445
sg7
I46
stp10
sS'hhints'
p11
((dp12
g6
I-19
sg7
I20
s(dp13
g6
I802
sg7
I21
stp14
ss."
HStem: -19 20 802 21
VStem: 205 50 215 50 445 46
LayerCount: 2
Fore
SplineSet
230.396 -88.9375 m 1
 230.396 1.0625 l 1
 230.396 -88.9375 l 1
239.981 801.641 m 1
 239.981 891.641 l 1
 239.981 801.641 l 1
420.378 726.918 m 1
 338.463 784.276 l 1
 239.981 801.641 l 1
 141.502 784.276 l 1
 59.5859 726.918 l 1
 2.44727 645.071 l 1
 -2 650 -0.0185547 586.487 -0.0185547 586.487 c 1
 47.9814 505.641 l 1
 129.896 448.282 l 1
 228.378 430.918 l 1
 332.065 412.999 l 1
 413.981 355.641 l 1
 469.12 273.794 l 1
 472 278 465.931 157.632 465.931 157.632 c 1
 410.792 75.7852 l 1
 328.876 18.4268 l 1
 230.396 1.0625 l 1
 131.915 18.4268 l 1
 50 75.7852 l 1
 0 156.632 l 1
EndSplineSet
EndChar

StartChar: percent
Encoding: 37 37 58
Width: 1000
VWidth: 0
Flags: W
PickledData: "(dp1
S'com.fontlab.hintData'
p2
(dp3
S'vhints'
p4
((dp5
S'position'
p6
I-24
sS'width'
p7
I50
s(dp8
g6
I277
sg7
I50
stp9
sS'hhints'
p10
((dp11
g6
I100
sg7
I39
s(dp12
g6
I400
sg7
I39
stp13
ss."
HStem: 100 39 400 39
VStem: -24 50 277 50
LayerCount: 2
Fore
SplineSet
0.75 438.6 m 1
 0.75 399.6 l 1
301.75 138.6 m 1
 301.75 99.5996 l 1
0 0 m 1
 289.75 501.6 l 1
EndSplineSet
EndChar

StartChar: asciicircum
Encoding: 94 94 59
Width: 1000
VWidth: 0
Flags: W
LayerCount: 2
Fore
SplineSet
0 600 m 1
 198.5 798 l 1
 396.5 600 l 1
EndSplineSet
EndChar

StartChar: grave
Encoding: 96 96 60
Width: 1000
VWidth: 0
Flags: W
LayerCount: 2
Fore
SplineSet
0 800 m 1
 117.5 600 l 1
EndSplineSet
EndChar

StartChar: bar
Encoding: 124 124 61
Width: 1000
VWidth: 0
Flags: W
LayerCount: 2
Fore
SplineSet
0 800 m 1
 0 0 l 1
EndSplineSet
EndChar

StartChar: braceright
Encoding: 125 125 62
Width: 1000
VWidth: 0
Flags: W
LayerCount: 2
Fore
SplineSet
-3.62207 801 m 0
-3.53125 -1.79199 m 0
-3.53125 -1.79199 m 0
-3.53125 -1.79199 m 0
-4.53125 797.139 m 1
 77.3154 742 l 1
 134.674 660.084 l 1
 135.5 441 l 1
 179.5 399 l 1
 132.5 360 l 1
 134.674 130.123 l 1
 77.3154 48.208 l 1
 -3.53125 -1.79199 l 1
EndSplineSet
EndChar

StartChar: braceleft
Encoding: 123 123 63
Width: 1000
VWidth: 0
Flags: W
LayerCount: 2
Fore
SplineSet
183.591 -1.79199 m 0
183.5 801 m 0
183.5 801 m 0
183.5 801 m 0
184.5 2.06934 m 1
 102.653 57.208 l 1
 45.2949 139.124 l 1
 44.4688 358.208 l 1
 0.46875 400.208 l 1
 47.4688 439.208 l 1
 45.2949 669.085 l 1
 102.653 751 l 1
 183.5 801 l 1
EndSplineSet
EndChar

StartChar: guillemotleft
Encoding: 171 171 64
Width: 1000
VWidth: 0
Flags: W
LayerCount: 2
Fore
SplineSet
498.75 4 m 1
 129.5 253 l 1
 495.5 504 l 1
360.5 3 m 1
 -8.75 252 l 1
 357.25 503 l 1
EndSplineSet
EndChar

StartChar: guillemotright
Encoding: 187 187 65
Width: 1000
VWidth: 0
Flags: W
LayerCount: 2
Fore
SplineSet
-8.75 503 m 1
 360.5 254 l 1
 -5.5 3 l 1
129.5 504 m 1
 498.75 255 l 1
 132.75 4 l 1
EndSplineSet
EndChar

StartChar: a
Encoding: 97 97 66
Width: 1000
VWidth: 0
Flags: W
LayerCount: 2
Fore
SplineSet
334.395 387.162 m 0
333 0 m 1
 330.532 388.072 l 1
 295.532 448.693 l 1
 238.191 488.844 l 1
 169.255 501 l 1
 0 460 l 1
331.255 352 m 2
 327.978 350.928 333.186 116.771 333.186 116.771 c 1
 290.186 56.1504 l 1
 232.847 16 l 1
 232.847 16 94.9727 15 94.9727 16 c 2
 37.6309 56.1504 l 1
 -0.369141 116.771 l 1
 -0.369141 116.771 -2.0918 216.844 2.63086 220.916 c 1
 45.6309 281.537 l 1
 331.255 352 l 2
-1.23047 117.682 m 0
EndSplineSet
EndChar

StartChar: degree
Encoding: 176 176 67
Width: 1000
VWidth: 0
Flags: W
LayerCount: 2
Fore
SplineSet
41.7402 632.314 m 1
 78.708 626.736 l 1
 110.677 632.314 l 1
 139.347 652.39 l 1
 160.847 682.7 l 1
 160.847 682.7 159.208 734.236 160.847 734.772 c 1
 143.347 765.083 l 1
 114.676 785.158 l 1
 80.208 791.236 l 1
 45.7393 785.158 l 1
 17.0693 765.083 l 1
 -4.43066 734.772 l 2
 -6.79199 732.736 -5.93066 682.7 -5.93066 682.7 c 1
 13.0693 652.39 l 1
 41.7402 632.314 l 1
-6.36133 683.155 m 0
162.777 734.317 m 0
EndSplineSet
EndChar

StartChar: c
Encoding: 99 99 68
Width: 1000
VWidth: 0
Flags: W
LayerCount: 2
Fore
SplineSet
-3.86133 400.234 m 0
330.5 102 m 1
 287.5 41.3789 l 1
 230.161 1.22852 l 1
 230.161 1.22852 92.2871 0.228516 92.2871 1.22852 c 2
 34.9453 41.3789 l 1
 -3.05469 102 l 1
 -3.05469 102 -4.72266 249.254 0 253.326 c 1
 -4.72266 257.398 -3 401.145 -3 401.145 c 1
 35 461.766 l 1
 92.3418 501.916 l 2
 92.3418 502.916 230.216 501.916 230.216 501.916 c 1
 287.555 461.766 l 1
 330.555 401.145 l 1
-3.91602 102.91 m 0
EndSplineSet
EndChar

StartChar: b
Encoding: 98 98 70
Width: 1000
VWidth: 0
Flags: W
LayerCount: 2
Fore
SplineSet
0 798 m 1
 0 0 l 1
0.222656 289.072 m 1
 43.2227 349.693 l 1
 100.562 389.844 l 1
 169.5 402 l 1
 238.436 389.844 l 1
 295.777 349.693 l 1
 330.777 289.072 l 1
 327.5 288 330.777 130.928 330.777 130.928 c 1
 287.777 70.3066 l 1
 230.438 30.1562 l 1
 165.5 18 l 1
 92.5645 30.1562 l 1
 35.2227 70.3066 l 1
 -2.77734 130.928 l 1
 -2.77734 130.928 -4.5 285 0.222656 289.072 c 1
166.5 19 m 0
-3.63867 131.838 m 0
334.639 288.162 m 0
EndSplineSet
EndChar

StartChar: d
Encoding: 100 100 71
Width: 1000
VWidth: 0
Flags: W
LayerCount: 2
Fore
SplineSet
331 798 m 1
 331 0 l 1
330.777 289.072 m 1
 287.777 349.693 l 1
 230.438 389.844 l 1
 161.5 402 l 1
 92.5645 389.844 l 1
 35.2227 349.693 l 1
 0.222656 289.072 l 1
 3.5 288 0.222656 130.928 0.222656 130.928 c 1
 43.2227 70.3066 l 1
 100.562 30.1562 l 1
 165.5 18 l 1
 238.436 30.1562 l 1
 295.777 70.3066 l 1
 333.777 130.928 l 1
 333.777 130.928 335.5 285 330.777 289.072 c 1
164.5 19 m 0
334.639 131.838 m 0
-3.63867 288.162 m 0
EndSplineSet
EndChar

